<svg width="229" height="229" viewBox="0 0 229 229" fill="none" xmlns="http://www.w3.org/2000/svg">
<path d="M93.3384 48C91.8366 48 90.9606 48.7473 90.7103 49.121C90.3347 49.3701 89.5086 49.943 89.2082 50.2419C88.8328 50.6156 88.8328 53.6049 88.8328 55.0995C88.8328 56.5941 91.4609 63.32 92.2118 64.0673C92.9627 64.8146 97.8437 72.2877 98.5946 73.035C99.1953 73.6329 102.099 76.0243 103.475 77.1453L97.8437 80.5082C95.9664 81.8783 91.8364 84.9921 90.3346 86.4867C88.4573 88.355 80.9482 96.5755 79.0709 98.8174C77.1937 101.059 72.3128 108.906 71.5619 110.027C70.9611 110.924 68.3079 116.379 67.0564 118.995L64.4282 125.721C61.8 129.457 61.4248 142.162 61.0494 143.656C60.6739 145.151 62.5512 152.25 62.9266 154.866C63.227 156.959 66.556 161.716 68.183 163.834C68.7837 165.627 75.6921 170.061 79.0712 172.054C79.6719 172.652 88.5827 175.293 92.963 176.538L104.227 178.406H113.988H123.375C123.675 178.406 130.759 177.659 134.263 177.285L146.277 174.67C148.155 175.044 156.039 169.812 156.415 169.812C156.79 169.812 162.797 164.207 164.299 162.339C165.801 160.471 168.054 154.492 168.805 152.624C169.556 150.756 169.556 146.646 169.556 146.272C169.556 145.898 169.556 141.788 168.805 135.809C168.204 131.027 163.799 120.863 161.671 116.379L152.66 102.554C152.36 100.462 142.523 90.7215 137.642 86.1131L132.761 82.3765L126.378 78.2663C125.002 77.6435 122.324 76.398 122.624 76.398C122.924 76.398 126.504 72.1632 128.256 70.0458C129.132 68.6757 130.959 65.7114 131.259 64.8146C131.635 63.6936 133.888 58.8361 134.263 58.4624C134.563 58.1635 135.139 56.0959 135.389 55.0995L136.14 50.9893C136.441 50.0925 136.015 49.3701 135.765 49.121C135.64 48.8719 135.239 48.3737 134.638 48.3737H129.758C128.556 48.3737 126.003 49.3701 124.877 49.8683L119.245 51.3629C117.868 51.612 114.965 52.185 114.364 52.4839C113.613 52.8575 110.234 52.8575 108.357 52.8575C106.855 52.8575 104.227 51.612 103.1 50.9893L98.9703 49.4946L95.9666 48.3737C95.7163 48.2491 94.8403 48 93.3384 48Z" stroke="white" stroke-width="3"/>
<path d="M122.624 114.885C121.723 113.988 119.245 113.515 118.119 113.39V125.347C120.246 125.97 124.576 127.29 124.877 127.589C125.252 127.963 131.259 130.952 131.635 135.436C132.011 139.92 131.635 139.92 129.758 144.404C128.256 147.991 121.373 149.635 118.119 150.009V154.492C117.743 155.24 116.542 156.734 114.74 156.734C112.937 156.734 111.986 155.24 111.736 154.492V150.009C106.855 148.888 104.227 146.646 102.725 144.777C101.223 142.909 101.599 143.283 100.472 141.788C99.5713 140.592 99.3459 138.301 99.3459 137.304C99.0455 135.81 100.973 134.938 101.974 134.689C102.85 134.813 104.677 135.361 104.978 136.557C105.353 138.052 107.23 140.667 108.357 141.788C109.258 142.685 110.985 143.158 111.736 143.283V130.578C110.484 130.205 107.531 129.233 105.729 128.336C103.926 127.44 101.974 125.721 101.223 124.974C100.597 124.226 99.3459 122.059 99.3459 119.369C99.3459 116.678 100.597 113.764 101.223 112.643C101.524 111.447 104.352 109.404 105.729 108.533C106.63 107.636 110.109 106.913 111.736 106.664V102.554C111.861 101.682 112.637 99.9385 114.739 99.9385C116.842 99.9385 117.868 101.682 118.119 102.554V106.664C119.996 106.913 124.276 107.86 126.379 109.654C129.007 111.896 129.007 112.269 130.509 114.137C131.71 115.632 131.51 117.5 131.259 118.248C131.009 118.87 130.058 120.191 128.256 120.49C126.454 120.789 125.002 118.87 124.501 117.874C124.251 117.251 123.525 115.782 122.624 114.885Z" stroke="white" stroke-width="3"/>
<path d="M105.73 118.621C106.031 115.034 109.86 113.639 111.737 113.39V123.853C109.61 123.603 105.43 122.208 105.73 118.621Z" stroke="white" stroke-width="3"/>
<path d="M124.862 137.678C124.562 134.091 120.742 132.696 118.87 132.447V142.909C120.992 142.66 125.161 141.265 124.862 137.678Z" stroke="white" stroke-width="3"/>
<circle cx="114.5" cy="114.5" r="114" stroke="white"/>
</svg>
