<svg width="19" height="19" viewBox="0 0 19 19" fill="none" xmlns="http://www.w3.org/2000/svg">
<g clip-path="url(#clip0_4202_316)">
<path fill-rule="evenodd" clip-rule="evenodd" d="M16.2305 2.76112C14.4446 0.981541 12.0694 0.00100024 9.53895 0C4.32495 0 0.0814031 4.22326 0.0793165 9.41434C0.0786209 11.0737 0.51423 12.6935 1.34199 14.1212L0 19L5.01469 17.6908C6.39632 18.4408 7.95195 18.8361 9.53516 18.8368H9.53905C14.7525 18.8368 18.9964 14.613 18.9985 9.42185C18.9996 6.90618 18.0165 4.54069 16.2305 2.76112ZM9.53905 17.2466H9.53583C8.12503 17.2461 6.74126 16.8689 5.53412 16.1559L5.24699 15.9863L2.27125 16.7632L3.06555 13.8755L2.87858 13.5795C2.09154 12.3335 1.67585 10.8935 1.67647 9.41493C1.67819 5.10031 5.20529 1.59012 9.54217 1.59012C11.6422 1.59092 13.6163 2.40596 15.1007 3.88508C16.5852 5.3642 17.4022 7.33031 17.4014 9.42124C17.3996 13.7362 13.8726 17.2466 9.53905 17.2466ZM13.8517 11.3859C13.6154 11.2681 12.4533 10.699 12.2366 10.6205C12.02 10.542 11.8624 10.5028 11.7048 10.7383C11.5473 10.9738 11.0943 11.5037 10.9564 11.6606C10.8185 11.8177 10.6807 11.8373 10.4443 11.7195C10.2079 11.6018 9.44636 11.3534 8.54354 10.5519C7.84092 9.92818 7.36651 9.15774 7.22864 8.92225C7.09077 8.68673 7.21399 8.55939 7.3323 8.44213C7.43862 8.33672 7.56866 8.16738 7.68685 8.02998C7.80501 7.89262 7.8444 7.79449 7.92317 7.63751C8.00197 7.48049 7.96259 7.3431 7.90349 7.22536C7.8444 7.10761 7.37172 5.9497 7.17473 5.47869C6.98289 5.01996 6.78801 5.08203 6.64293 5.07485C6.50521 5.06802 6.34748 5.06656 6.18993 5.06656C6.03235 5.06656 5.77629 5.12545 5.55962 5.36094C5.34298 5.59646 4.7324 6.16559 4.7324 7.32348C4.7324 8.48137 5.57933 9.6 5.69752 9.75701C5.81568 9.91402 7.3642 12.2902 9.73524 13.3092C10.2992 13.5516 10.7394 13.6963 11.0827 13.8048C11.6489 13.9838 12.1642 13.9585 12.5715 13.8979C13.0256 13.8304 13.9699 13.3288 14.1669 12.7793C14.3638 12.2298 14.3638 11.7588 14.3047 11.6607C14.2457 11.5625 14.0881 11.5037 13.8517 11.3859Z" fill="white"/>
</g>
<defs>
<clipPath id="clip0_4202_316">
<rect width="19" height="19" fill="white"/>
</clipPath>
</defs>
</svg>
