<svg width="45" height="34" viewBox="0 0 45 34" fill="none" xmlns="http://www.w3.org/2000/svg">
<path d="M44.0608 5.31115C43.8047 4.28269 43.3024 3.3448 42.6043 2.59134C41.9063 1.83788 41.0369 1.29528 40.0831 1.01783C36.5725 2.06528e-07 22.5 0 22.5 0C22.5 0 8.42745 -2.06528e-07 4.91685 1.01242C3.96271 1.28896 3.09287 1.83126 2.39467 2.58486C1.69647 3.33846 1.19451 4.27683 0.939174 5.30573C-1.91586e-07 9.09554 0 17 0 17C0 17 -1.91586e-07 24.9045 0.939174 28.6889C1.45647 30.7787 2.98326 32.4245 4.91685 32.9822C8.42745 34 22.5 34 22.5 34C22.5 34 36.5725 34 40.0831 32.9822C42.0218 32.4245 43.5435 30.7787 44.0608 28.6889C45 24.9045 45 17 45 17C45 17 45 9.09554 44.0608 5.31115ZM18.0301 24.2548V9.74522L29.6819 16.9459L18.0301 24.2548Z" fill="white"/>
</svg>
