<svg width="229" height="229" viewBox="0 0 229 229" fill="none" xmlns="http://www.w3.org/2000/svg">
<circle cx="114.5" cy="114.5" r="114" stroke="white"/>
<path d="M142 170.21L134.356 154.234V143.45V132.667L135.966 123.081L137.575 113.495L138.782 102.712V97.9189L134.356 89.5315L127.517 79.5465M127.517 79.5465L119.471 67.5646L116.655 62.8625M127.517 79.5465V72.7568V67.5646V63.1712M109.816 177L109.011 174.604L107.805 171.408L106.195 166.616L104.989 162.222L102.575 156.631L99.3563 151.039L95.7356 144.649L92.9195 139.856L89.7011 133.865L85.2759 129.072L81.6552 125.477L78.4368 121.883L74.4138 117.489L72.8046 111.498L72 105.907L72.8046 99.1171L74.4138 94.3243L76.4253 91.1291L79.6437 91.9279L84.069 94.3243L84.4713 96.3213V99.9159L84.8736 102.712L85.2759 105.907L87.2874 108.303L89.7011 111.498L91.7126 113.495L94.931 115.892L96.9425 117.489L100.161 118.288L102.977 117.489L105.793 115.892L107.805 114.294L111.425 111.498L113.437 108.303L114.241 105.108V100.315L111.828 95.9219L107.805 92.3273L104.586 89.9309L100.161 89.5315L97.3448 89.9309L93.3218 91.9279L89.7011 93.1261H87.2874L84.8736 91.9279L82.0575 89.9309L79.2414 87.1351L79.6437 86.7357L84.8736 82.7417L89.2989 79.5465L94.931 77.9489L100.161 77.5495H104.586L111.023 77.9489L109.414 75.5526L107 71.1592L102.575 64.3694L100.966 60.3754V54.3844L102.575 48.7928L105.391 44.7988L110.621 52.7868L116.655 62.8625M135.563 91.1291V81.1441V73.955V67.5646V61.5736V59.5766L131.943 61.1742L127.517 63.1712M127.517 63.1712V57.1802V50.7898V46.3964V44H121.08L118.667 47.5946L116.655 51.988V56.3814V61.1742V62.8625" stroke="white" stroke-width="3"/>
</svg>
