<svg width="229" height="229" viewBox="0 0 229 229" fill="none" xmlns="http://www.w3.org/2000/svg">
<circle cx="114.5" cy="114.5" r="114" stroke="white"/>
<path d="M46 46.5V175.5H178.717" stroke="white" stroke-width="3" stroke-linecap="round"/>
<path d="M76.9971 131.378H77.8063C85.2622 131.378 91.3063 137.423 91.3063 144.878V163.928H63.4971V144.878C63.4971 137.423 69.5412 131.378 76.9971 131.378Z" stroke="white" stroke-width="3"/>
<path d="M119.656 111.234H120.466C127.921 111.234 133.965 117.278 133.965 124.734V163.928H106.156V124.734C106.156 117.278 112.2 111.234 119.656 111.234Z" stroke="white" stroke-width="3"/>
<path d="M67.9219 97.2919L103.471 77.7398M103.471 77.7398L82.734 74.1849M103.471 77.7398L96.3612 94.9219" stroke="white" stroke-width="3" stroke-linecap="round"/>
<path d="M162.315 76.8701H163.125C170.581 76.8701 176.625 82.9143 176.625 90.3701V163.928H148.815V90.3701C148.815 82.9143 154.86 76.8701 162.315 76.8701Z" stroke="white" stroke-width="3"/>
</svg>
