<svg width="229" height="229" viewBox="0 0 229 229" fill="none" xmlns="http://www.w3.org/2000/svg">
<circle cx="114.5" cy="114.5" r="114" stroke="white"/>
<path d="M24 175.607L63.1791 135.848L65.5008 131.494L66.6617 126.851L67.5323 122.498V119.015V117.564M67.5323 117.564C69.1769 118.338 73.1045 119.189 75.6584 116.403C78.2123 113.617 77.4964 109.438 76.8192 107.697M67.5323 117.564L58.8259 107.697C58.3422 106.729 57.8972 104.098 59.9867 101.312C62.0763 98.526 65.8878 98.7969 67.5323 99.2806M76.8192 107.697L67.5323 99.2806M76.8192 107.697C78.0768 108.567 81.6949 109.206 86.1061 104.795C90.5174 100.383 89.492 98.1197 88.4279 97.5392L75.6584 84.4795C73.8203 83.8023 69.4478 83.2606 66.6617 86.511C63.8756 89.7614 63.953 92.3153 64.34 93.186L65.5008 95.2175L67.5323 99.2806" stroke="white" stroke-width="3"/>
<path d="M75.3685 84.1892C74.5946 82.2544 72.3501 76.5856 75.3684 74.0317C78.3866 71.4778 82.6237 71.8067 84.3649 72.2904M84.3649 72.2904L102.358 90.8642C103.519 92.6055 104.854 96.7846 100.907 99.5706C96.9603 102.357 92.104 99.9576 90.1692 98.4098M84.3649 72.2904C83.3008 70.936 81.9853 67.2987 85.2357 63.5839C88.4861 59.8691 93.3617 60.2948 95.3932 60.972M95.3932 60.972L113.096 78.0947C114.547 80.1262 116.579 85.0018 113.096 88.2523C109.614 91.5027 104.487 90.7675 102.358 89.9936M95.3932 60.972C96.3219 61.9006 105.261 61.9394 109.614 61.8427L111.065 72.2904L127.317 55.1677M95.3932 60.972C92.6846 58.5535 87.5575 53.0781 88.7182 50.5242C93.5552 48.5895 104.39 44.778 109.033 45.0101C113.677 45.2423 118.32 46.6547 120.062 47.3319L127.317 55.1677M127.317 55.1677C129.252 54.3938 133.876 53.5425 136.894 56.3286C139.912 59.1147 139.506 62.3263 138.926 63.5839L134.152 68.8079M123.544 80.4165L134.152 68.8079M134.152 68.8079C136.517 68.4209 141.886 68.5756 144.44 72.2904C146.994 76.0052 145.504 79.8361 144.44 81.2872M144.44 81.2872L123.544 101.312M144.44 81.2872C146.181 80.9001 150.302 80.9388 152.856 84.1892C155.41 87.4397 153.92 91.7349 152.856 93.4762M152.856 93.4762L134.152 112.34M152.856 93.4762C154.597 93.4762 158.602 94.1727 160.692 96.9588C162.781 99.7449 162.53 103.344 162.143 104.795L119.771 147.747C118.331 148.001 116.226 148.422 114.257 148.912M81.7531 176.768C90.5563 168.642 108.337 152.1 109.033 150.939C109.425 150.286 111.73 149.542 114.257 148.912M114.257 148.912L142.408 176.768" stroke="white" stroke-width="3"/>
<path d="M158.95 109.148C159.724 109.922 161.33 112.514 161.562 116.694C161.852 121.917 161.852 125.69 163.303 127.722C164.464 129.347 174.815 140.394 179.846 145.715L199 165.45" stroke="white" stroke-width="3"/>
</svg>
