<svg width="90" height="90" viewBox="0 0 90 90" fill="none" xmlns="http://www.w3.org/2000/svg">
<circle cx="45" cy="45" r="44.5" stroke="#383838"/>
<path d="M11 57.9318L25.7409 44.4454L40.1682 57.9318" stroke="#222121" stroke-width="3" stroke-linecap="round"/>
<path d="M31.3867 38.4864L46.1276 25L60.5549 38.4864" stroke="#222121" stroke-width="3" stroke-linecap="round"/>
<path d="M50.832 57.9318L65.5729 44.4454L80.0002 57.9318" stroke="#222121" stroke-width="3" stroke-linecap="round"/>
<rect x="42.5508" y="39.3" width="2.13636" height="2.13636" fill="#222121" stroke="#222121"/>
<rect x="22.4766" y="58.7454" width="2.13636" height="2.13636" fill="#222121" stroke="#222121"/>
<rect x="61.9961" y="58.7454" width="2.13636" height="2.13636" fill="#222121" stroke="#222121"/>
<rect x="42.5508" y="43.0636" width="2.13636" height="2.13636" fill="#222121" stroke="#222121"/>
<rect x="22.4766" y="62.509" width="2.13636" height="2.13636" fill="#222121" stroke="#222121"/>
<rect x="61.9961" y="62.509" width="2.13636" height="2.13636" fill="#222121" stroke="#222121"/>
<rect x="46.9414" y="39.3" width="2.13636" height="2.13636" fill="#222121" stroke="#222121"/>
<rect x="26.8691" y="58.7454" width="2.13636" height="2.13636" fill="#222121" stroke="#222121"/>
<rect x="66.3867" y="58.7454" width="2.13636" height="2.13636" fill="#222121" stroke="#222121"/>
<rect x="46.9414" y="43.0636" width="2.13636" height="2.13636" fill="#222121" stroke="#222121"/>
<rect x="26.8691" y="62.509" width="2.13636" height="2.13636" fill="#222121" stroke="#222121"/>
<rect x="66.3867" y="62.509" width="2.13636" height="2.13636" fill="#222121" stroke="#222121"/>
</svg>
