<svg width="229" height="229" viewBox="0 0 229 229" fill="none" xmlns="http://www.w3.org/2000/svg">
<path d="M90 177H140" stroke="black"/>
<circle cx="114.5" cy="114.5" r="114" stroke="white"/>
<line x1="90.1973" y1="177.203" x2="140.643" y2="177.203" stroke="white" stroke-width="3"/>
<path d="M61.6115 77.0918L49 79.1999L59.9299 88.8972L57.828 101.546L69.5987 97.3296L82.2102 101.546L79.6879 88.8972L90.1975 79.1999L77.1656 77.0918L69.5987 65.708L61.6115 77.0918Z" stroke="white" stroke-width="3"/>
<path d="M107.012 59.3838L94.4004 61.4919L105.33 71.1892L103.228 83.8378L114.999 79.6216L127.611 83.8378L125.088 71.1892L135.598 61.4919L122.566 59.3838L114.999 48L107.012 59.3838Z" stroke="white" stroke-width="3"/>
<path d="M152.414 77.0918L139.803 79.1999L150.733 88.8972L148.631 101.546L160.401 97.3296L173.013 101.546L170.491 88.8972L181 79.1999L167.968 77.0918L160.401 65.708L152.414 77.0918Z" stroke="white" stroke-width="3"/>
<path d="M131.577 126C131.577 135.188 124.151 142.63 115 142.63C105.85 142.63 98.4238 135.188 98.4238 126C98.4238 116.811 105.85 109.37 115 109.37C124.151 109.37 131.577 116.811 131.577 126Z" stroke="white" stroke-width="3"/>
<mask id="mask0_4202_481" style="mask-type:alpha" maskUnits="userSpaceOnUse" x="90" y="142" width="51" height="62">
<path d="M139.5 173C139.5 189.58 128.494 202.5 115.5 202.5C102.506 202.5 91.5 189.58 91.5 173C91.5 156.42 102.506 143.5 115.5 143.5C128.494 143.5 139.5 156.42 139.5 173Z" stroke="white" stroke-width="3"/>
</mask>
<g mask="url(#mask0_4202_481)">
<rect x="87" y="143" width="56" height="35" fill="white"/>
</g>
</svg>
