<svg width="34" height="34" viewBox="0 0 34 34" fill="none" xmlns="http://www.w3.org/2000/svg">
<path d="M2.38 2.38C4.50346e-07 4.78267 0 8.62467 0 16.32V17.68C0 25.364 4.50346e-07 29.206 2.38 31.62C4.78267 34 8.62467 34 16.32 34H17.68C25.364 34 29.206 34 31.62 31.62C34 29.2173 34 25.3753 34 17.68V16.32C34 8.636 34 4.794 31.62 2.38C29.2173 4.50346e-07 25.3753 0 17.68 0H16.32C8.636 0 4.794 4.50346e-07 2.38 2.38ZM5.73467 10.3473H9.63333C9.758 16.83 12.614 19.5727 14.8807 20.1393V10.3473H18.5413V15.9347C20.774 15.6967 23.1313 13.1467 23.9247 10.336H27.574C27.2765 11.791 26.6822 13.169 25.8281 14.3838C24.974 15.5987 23.8784 16.6244 22.61 17.3967C24.0256 18.101 25.2757 19.0975 26.2779 20.3204C27.2801 21.5434 28.0116 22.9649 28.424 24.4913H24.4007C23.5393 21.8053 21.386 19.72 18.5413 19.4367V24.4913H18.088C10.336 24.4913 5.916 19.1873 5.73467 10.3473Z" fill="white"/>
</svg>
